# xmcd CD database file
#
# Track frame offsets:
#	150
#	20192
#	38544
#	49365
#	68099
#	84793
#	98977
#	117994
#	133288
#	185149
#	230906
#
# Disc length: 3369 seconds
#
# Revision: 12
# Processed by: cddbd v1.5.1PL2 Copyright (c) Steve Scherf et al.
# Submitted via: CDex 1.51
#
DISCID=9e0d270b
DTITLE=Michel Petrucciani - Live In Germany
DYEAR=1998
DGENRE=Jazz
TTITLE0=Looking Up
TTITLE1=Besame Mucho
TTITLE2=Rachid
TTITLE3=Chloé Meets Gershwin
TTITLE4=Home
TTITLE5=Brazilian Like
TTITLE6=Little Piece In C For U
TTITLE7=Romantic But Not Blue
TTITLE8=Trilogy In Blois (Morning Sun, Noon Sun And Night Sun In Blois)
TTITLE9=Caravan
TTITLE10=She Did It Again - Take The A Train - She Did It Again
EXTD=Live recorded in Frankfurt "Alte Oper" on February 27th, 1997. YEAR: 1998
EXTT0=
EXTT1=
EXTT2=
EXTT3=
EXTT4=
EXTT5=
EXTT6=
EXTT7=
EXTT8=
EXTT9=
EXTT10=
PLAYORDER=
